<?xml version="1.0" encoding="UTF-8" standalone="no"?>
<!DOCTYPE svg PUBLIC "-//W3C//DTD SVG 1.1//EN"
 "http://www.w3.org/Graphics/SVG/1.1/DTD/svg11.dtd">
<!-- Generated by graphviz version 7.1.0 (0)
 -->
<!-- Pages: 1 -->
<svg width="190pt" height="305pt"
 viewBox="0.00 0.00 190.00 305.00" xmlns="http://www.w3.org/2000/svg" xmlns:xlink="http://www.w3.org/1999/xlink">
<g id="graph0" class="graph" transform="scale(1 1) rotate(0) translate(4 301)">
<polygon fill="white" stroke="none" points="-4,4 -4,-301 186,-301 186,4 -4,4"/>
<!-- 1 -->
<g id="node1" class="node">
<title>1</title>
<ellipse fill="none" stroke="black" cx="27" cy="-192" rx="27" ry="18"/>
<text text-anchor="middle" x="27" y="-188.3" font-family="Times,serif" font-size="14.00">1</text>
</g>
<!-- 1&#45;&gt;1 -->
<g id="edge8" class="edge">
<title>1&#45;&gt;1</title>
<path fill="none" stroke="black" d="M51.53,-200.03C62.51,-200.79 72,-198.12 72,-192 72,-188.18 68.29,-185.7 62.83,-184.56"/>
<polygon fill="black" stroke="black" points="63.21,-181.08 53.04,-184.05 62.85,-188.07 63.21,-181.08"/>
<text text-anchor="middle" x="77" y="-188.3" font-family="Times,serif" font-size="14.00">X</text>
</g>
<!-- 3 -->
<g id="node2" class="node">
<title>3</title>
<ellipse fill="none" stroke="black" cx="94" cy="-105" rx="27" ry="18"/>
<text text-anchor="middle" x="94" y="-101.3" font-family="Times,serif" font-size="14.00">3</text>
</g>
<!-- 1&#45;&gt;3 -->
<g id="edge1" class="edge">
<title>1&#45;&gt;3</title>
<path fill="none" stroke="black" d="M38.98,-175.8C48.92,-163.19 63.25,-145.01 74.79,-130.37"/>
<polygon fill="black" stroke="black" points="77.52,-132.56 80.96,-122.54 72.02,-128.23 77.52,-132.56"/>
<text text-anchor="middle" x="71.5" y="-144.8" font-family="Times,serif" font-size="14.00">W</text>
</g>
<!-- 3&#45;&gt;3 -->
<g id="edge10" class="edge">
<title>3&#45;&gt;3</title>
<path fill="none" stroke="black" d="M118.53,-113.03C129.51,-113.79 139,-111.12 139,-105 139,-101.18 135.29,-98.7 129.83,-97.56"/>
<polygon fill="black" stroke="black" points="130.21,-94.08 120.04,-97.05 129.85,-101.07 130.21,-94.08"/>
<text text-anchor="middle" x="144" y="-101.3" font-family="Times,serif" font-size="14.00">X</text>
</g>
<!-- 4 -->
<g id="node5" class="node">
<title>4</title>
<ellipse fill="none" stroke="black" cx="94" cy="-18" rx="27" ry="18"/>
<text text-anchor="middle" x="94" y="-14.3" font-family="Times,serif" font-size="14.00">4</text>
</g>
<!-- 3&#45;&gt;4 -->
<g id="edge11" class="edge">
<title>3&#45;&gt;4</title>
<path fill="none" stroke="black" d="M94,-86.8C94,-75.58 94,-60.67 94,-47.69"/>
<polygon fill="black" stroke="black" points="97.5,-47.98 94,-37.98 90.5,-47.98 97.5,-47.98"/>
<text text-anchor="middle" x="99" y="-57.8" font-family="Times,serif" font-size="14.00">Z</text>
</g>
<!-- 0 -->
<g id="node3" class="node">
<title>0</title>
<ellipse fill="none" stroke="black" cx="60" cy="-279" rx="27" ry="18"/>
<text text-anchor="middle" x="60" y="-275.3" font-family="Times,serif" font-size="14.00">0</text>
</g>
<!-- 0&#45;&gt;1 -->
<g id="edge2" class="edge">
<title>0&#45;&gt;1</title>
<path fill="none" stroke="black" d="M43.25,-264.38C37.28,-258.5 31.24,-251.1 28,-243 25.36,-236.39 24.3,-228.88 24.1,-221.73"/>
<polygon fill="black" stroke="black" points="27.59,-221.86 24.36,-211.77 20.6,-221.68 27.59,-221.86"/>
<text text-anchor="middle" x="33" y="-231.8" font-family="Times,serif" font-size="14.00">Y</text>
</g>
<!-- 0&#45;&gt;1 -->
<g id="edge3" class="edge">
<title>0&#45;&gt;1</title>
<path fill="none" stroke="black" d="M53.48,-261.21C48.96,-249.56 42.84,-233.8 37.62,-220.36"/>
<polygon fill="black" stroke="black" points="40.94,-219.22 34.05,-211.17 34.41,-221.76 40.94,-219.22"/>
<text text-anchor="middle" x="50" y="-231.8" font-family="Times,serif" font-size="14.00">V</text>
</g>
<!-- 0&#45;&gt;0 -->
<g id="edge5" class="edge">
<title>0&#45;&gt;0</title>
<path fill="none" stroke="black" d="M84.53,-287.03C95.51,-287.79 105,-285.12 105,-279 105,-275.18 101.29,-272.7 95.83,-271.56"/>
<polygon fill="black" stroke="black" points="96.21,-268.08 86.04,-271.05 95.85,-275.07 96.21,-268.08"/>
<text text-anchor="middle" x="110" y="-275.3" font-family="Times,serif" font-size="14.00">X</text>
</g>
<!-- 2 -->
<g id="node4" class="node">
<title>2</title>
<ellipse fill="none" stroke="black" cx="127" cy="-192" rx="27" ry="18"/>
<text text-anchor="middle" x="127" y="-188.3" font-family="Times,serif" font-size="14.00">2</text>
</g>
<!-- 0&#45;&gt;2 -->
<g id="edge7" class="edge">
<title>0&#45;&gt;2</title>
<path fill="none" stroke="black" d="M71.98,-262.8C81.92,-250.19 96.25,-232.01 107.79,-217.37"/>
<polygon fill="black" stroke="black" points="110.52,-219.56 113.96,-209.54 105.02,-215.23 110.52,-219.56"/>
<text text-anchor="middle" x="104.5" y="-231.8" font-family="Times,serif" font-size="14.00">W</text>
</g>
<!-- 2&#45;&gt;3 -->
<g id="edge6" class="edge">
<title>2&#45;&gt;3</title>
<path fill="none" stroke="black" d="M110.25,-177.38C104.28,-171.5 98.24,-164.1 95,-156 92.36,-149.39 91.3,-141.88 91.1,-134.73"/>
<polygon fill="black" stroke="black" points="94.59,-134.86 91.36,-124.77 87.6,-134.68 94.59,-134.86"/>
<text text-anchor="middle" x="100" y="-144.8" font-family="Times,serif" font-size="14.00">Y</text>
</g>
<!-- 2&#45;&gt;3 -->
<g id="edge9" class="edge">
<title>2&#45;&gt;3</title>
<path fill="none" stroke="black" d="M120.48,-174.21C115.96,-162.56 109.84,-146.8 104.62,-133.36"/>
<polygon fill="black" stroke="black" points="107.94,-132.22 101.05,-124.17 101.41,-134.76 107.94,-132.22"/>
<text text-anchor="middle" x="117" y="-144.8" font-family="Times,serif" font-size="14.00">V</text>
</g>
<!-- 2&#45;&gt;2 -->
<g id="edge4" class="edge">
<title>2&#45;&gt;2</title>
<path fill="none" stroke="black" d="M151.53,-200.03C162.51,-200.79 172,-198.12 172,-192 172,-188.18 168.29,-185.7 162.83,-184.56"/>
<polygon fill="black" stroke="black" points="163.21,-181.08 153.04,-184.05 162.85,-188.07 163.21,-181.08"/>
<text text-anchor="middle" x="177" y="-188.3" font-family="Times,serif" font-size="14.00">X</text>
</g>
</g>
</svg>
